<?xml version="1.0" encoding="utf-8"?>
<!-- Generator: Adobe Illustrator 22.1.0, SVG Export Plug-In . SVG Version: 6.00 Build 0)  -->
<svg version="1.1" id="Layer_1" xmlns="http://www.w3.org/2000/svg" xmlns:xlink="http://www.w3.org/1999/xlink" x="0px" y="0px"
	 viewBox="0 0 1024 768" style="enable-background:new 0 0 1024 768;" xml:space="preserve">
<style type="text/css">
	.st0{fill:none;stroke:#000000;stroke-width:4;stroke-miterlimit:10;}
	.st1{fill:none;stroke:#000000;stroke-miterlimit:10;}
	.st2{font-family:'MyriadPro-Regular';}
	.st3{font-size:16px;}
	.st4{fill:none;stroke:#FF5D00;stroke-width:4;stroke-miterlimit:10;}
	.st5{fill:none;stroke:#1700D4;stroke-width:4;stroke-miterlimit:10;}
	.st6{fill:none;stroke:#15FF29;stroke-width:5;stroke-miterlimit:10;}
	.st7{fill:none;stroke:#94008E;stroke-width:5;stroke-miterlimit:10;}
</style>
<image style="overflow:visible;" width="2945" height="1760" xlink:href="Screenshot (431).png"  transform="matrix(0.2809 0 0 0.2761 98.75 141)">
</image>
<rect x="98.8" y="141" class="st0" width="827.3" height="486"/>
<line class="st1" x1="423" y1="627" x2="423" y2="657"/>
<text transform="matrix(0.9996 2.703344e-02 -2.703344e-02 0.9996 929.8803 260.4421)" class="st2 st3">ForecastList.js</text>
<text transform="matrix(0.9996 2.703344e-02 -2.703344e-02 0.9996 415.8803 92.4421)" class="st2 st3">Forecast.js</text>
<text transform="matrix(0.9996 2.703344e-02 -2.703344e-02 0.9996 392.8803 681.4421)" class="st2 st3">App.js</text>
<text transform="matrix(0.9996 2.703344e-02 -2.703344e-02 0.9996 673.8803 96.4421)" class="st2 st3">WeatherIcon.js</text>
<text transform="matrix(0.9996 2.703344e-02 -2.703344e-02 0.9996 549.8803 435.4421)" class="st2 st3">WeatherInfo.js</text>
<rect x="140" y="171" class="st4" width="761" height="158"/>
<line class="st4" x1="901" y1="237" x2="948" y2="237"/>
<rect x="140" y="171" class="st5" width="158" height="158"/>
<line class="st5" x1="231" y1="171" x2="399" y2="87"/>
<rect x="298" y="171" class="st6" width="158" height="97"/>
<rect x="298" y="268" class="st7" width="158" height="61"/>
<line class="st6" x1="415.9" y1="171" x2="663" y2="92.4"/>
<line class="st7" x1="415.9" y1="329" x2="539.4" y2="424"/>
</svg>
